<svg width="8" height="8" viewBox="0 0 8 8" fill="none" xmlns="http://www.w3.org/2000/svg">
<path fill-rule="evenodd" clip-rule="evenodd" d="M1.36474 0.218987C1.07355 -0.0755999 0.601435 -0.0755999 0.310246 0.218987C0.0190565 0.513574 0.0190565 0.991195 0.310246 1.28578L2.94492 3.9512L0.216439 6.71152C-0.0747505 7.00611 -0.0747505 7.48373 0.216439 7.77831C0.507628 8.0729 0.97974 8.0729 1.27093 7.77831L3.99941 5.01799L6.72779 7.77821C7.01898 8.0728 7.49109 8.0728 7.78228 7.77821C8.07347 7.48362 8.07347 7.006 7.78228 6.71142L5.0539 3.9512L7.68848 1.28588C7.97966 0.991296 7.97967 0.513676 7.68848 0.219089C7.39729 -0.0754986 6.92517 -0.0754984 6.63399 0.219089L3.99941 2.8844L1.36474 0.218987Z" fill="#555555"/>
</svg>
